<svg width="185" height="72" viewBox="0 0 185 72" fill="none" xmlns="http://www.w3.org/2000/svg">
<path fill-rule="evenodd" clip-rule="evenodd" d="M132.303 59.5589C119.443 67.6717 100.803 72.0002 84.7536 72.0002C62.2503 72.0002 41.9917 64.8766 26.6651 53.0291C25.4612 52.0972 26.54 50.8276 27.9849 51.5532C44.5252 59.7897 64.9766 64.7448 86.1022 64.7448C100.35 64.7448 116.023 62.2219 130.434 56.9865C132.611 56.195 134.432 58.2067 132.303 59.5589Z" fill="#FF9900"/>
<path fill-rule="evenodd" clip-rule="evenodd" d="M137.905 54.1606C136.258 52.3076 126.982 53.2851 122.818 53.7185C121.55 53.8546 121.356 52.8856 122.499 52.1887C129.887 47.6245 142.01 48.9419 143.424 50.4718C144.837 52.0102 143.056 62.677 136.113 67.7682C135.048 68.5503 134.031 68.1338 134.506 67.0967C136.065 63.6801 139.56 56.022 137.905 54.1606Z" fill="#FF9900"/>
<path fill-rule="evenodd" clip-rule="evenodd" d="M106.935 7.92309V2.45243C106.935 1.62444 107.418 1.069 107.998 1.069H126.818C127.422 1.069 127.905 1.63479 127.905 2.45243V7.13699C127.897 7.92309 127.389 8.95019 126.487 10.5746L116.735 28.6951C120.359 28.58 124.184 29.2821 127.47 31.6926C128.211 32.2374 128.412 33.0341 128.468 33.82V39.6576C128.468 40.454 127.792 41.3868 127.083 40.9047C121.293 36.9538 113.603 36.524 107.201 40.9466C106.548 41.4079 105.864 40.4856 105.864 39.6891V34.145C105.864 33.2542 105.872 31.7345 106.556 30.3826L117.855 9.29617H108.022C107.418 9.29617 106.935 8.74073 106.935 7.92309ZM38.2837 42.0575H32.558C32.0104 42.0053 31.5756 41.4708 31.5353 40.7894V2.54681C31.5353 1.78166 32.0265 1.17373 32.6384 1.17373H37.9775C38.5333 1.20503 38.9762 1.76071 39.0165 2.45219V7.45167H39.1212C40.5143 2.62024 43.1315 0.367166 46.6587 0.367166C50.2421 0.367166 52.481 2.62024 54.0916 7.45167C55.4767 2.62024 58.6254 0.367166 61.9996 0.367166C64.3992 0.367166 67.0246 1.65622 68.627 4.54877C70.4389 7.76611 70.0686 12.4403 70.0686 16.5381L70.0604 40.6743C70.0604 41.4395 69.5693 42.0578 68.9573 42.0578H63.2397C62.668 42.0055 62.2088 41.4082 62.2088 40.6743V20.4053C62.2088 18.7912 62.3217 14.7666 62.0479 13.2368C61.6211 10.669 60.3407 9.94575 58.6816 9.94575C57.2965 9.94575 55.8471 11.151 55.2591 13.0795C54.6714 15.0081 54.7278 18.2358 54.7278 20.4053V40.6741C54.7278 41.4392 54.2365 42.0575 53.6245 42.0575H47.9069C47.3271 42.0053 46.876 41.4079 46.876 40.6741L46.8681 20.4053C46.8681 16.1397 47.4075 9.86221 43.3409 9.86221C39.2259 9.86221 39.3869 15.9825 39.3869 20.4053V40.6741C39.3869 41.4392 38.8957 42.0575 38.2837 42.0575ZM144.107 0.366926C152.603 0.366926 157.201 9.86197 157.201 21.9354C157.201 33.5999 152.12 42.8542 144.107 42.8542C135.764 42.8542 131.223 33.3589 131.223 21.5265C131.223 9.62096 135.821 0.366926 144.107 0.366926ZM144.156 8.17469C139.936 8.17469 139.67 15.6577 139.67 20.3213C139.67 24.9957 139.614 34.9728 144.107 34.9728C148.544 34.9728 148.754 26.924 148.754 22.0191C148.754 18.7912 148.649 14.9344 147.9 11.8743C147.256 9.21214 145.975 8.17469 144.156 8.17469ZM168.218 42.0575H162.516C161.945 42.0053 161.485 41.4079 161.485 40.6741L161.477 2.42089C161.526 1.71882 162.001 1.17373 162.581 1.17373H167.887C168.387 1.20503 168.798 1.64563 168.91 2.24272V8.0909H169.015C170.618 2.86125 172.864 0.366926 176.818 0.366926C179.387 0.366926 181.892 1.57195 183.502 4.87332C185 7.93344 185 13.0795 185 16.7791V40.8523C184.936 41.523 184.461 42.0575 183.897 42.0575H178.155C177.631 42.0053 177.197 41.5021 177.14 40.8523V20.0803C177.14 15.8987 177.511 9.77794 173.557 9.77794C172.164 9.77794 170.883 10.9938 170.247 12.8383C169.442 15.1756 169.337 17.5022 169.337 20.0805V40.6741C169.329 41.4392 168.83 42.0575 168.218 42.0575ZM91.9322 23.7905C91.9322 26.6934 91.9887 29.1145 90.8611 31.6924C89.9513 33.7887 88.5018 35.0775 86.8991 35.0775C84.7008 35.0775 83.4122 32.8979 83.4122 29.6803C83.4122 23.3291 87.7851 22.1764 91.9322 22.1764V23.7905ZM97.7061 41.9528C97.3278 42.3929 96.7802 42.4244 96.3534 42.131C94.4529 40.0768 94.1065 39.1231 93.0678 37.1633C89.927 41.3345 87.6965 42.5817 83.6296 42.5817C78.8059 42.5817 75.0613 38.7143 75.0613 30.9696C75.0613 24.9223 77.5738 20.8035 81.1654 18.7912C84.274 17.0096 88.6144 16.6951 91.9324 16.2025V15.2385C91.9324 13.4672 92.0369 11.3711 91.2316 9.84102C90.5392 8.46818 89.2022 7.90214 88.0186 7.90214C85.8361 7.90214 83.8955 9.35877 83.4204 12.3772C83.3236 13.048 82.9451 13.7082 82.4218 13.7397L76.8732 12.9642C76.4063 12.828 75.8827 12.3353 76.0196 11.4026C77.2921 2.64119 83.3801 0 88.8241 0C91.6103 0 95.2502 0.964263 97.4488 3.71019C100.235 7.09534 99.9692 11.6121 99.9692 16.5275V28.1396C99.9692 31.6298 101.081 33.1596 102.127 35.0462C102.49 35.717 102.57 36.524 102.103 37.027C100.936 38.2951 98.8579 40.6531 97.7144 41.9737L97.7065 41.9528M16.8709 23.7905C16.8709 26.6934 16.9273 29.1145 15.7997 31.6924C14.8899 33.7887 13.4484 35.0775 11.8378 35.0775C9.63943 35.0775 8.35886 32.8979 8.35886 29.6803C8.35886 23.3291 12.7317 22.1764 16.8709 22.1764V23.7905ZM22.6447 41.9528C22.2664 42.3929 21.7188 42.4244 21.292 42.131C19.3915 40.0768 19.0532 39.1231 18.0064 37.1633C14.8657 41.3345 12.6433 42.5817 8.56827 42.5817C3.75272 42.5817 0 38.7143 0 30.9696C0 24.9223 2.52062 20.8035 6.10407 18.7912C9.21263 17.0096 13.5531 16.6951 16.8709 16.2025V15.2385C16.8709 13.4672 16.9756 11.3711 16.1782 9.84102C15.4777 8.46818 14.141 7.90214 12.9652 7.90214C10.7829 7.90214 8.83412 9.35877 8.35886 12.3772C8.26229 13.048 7.88377 13.7082 7.36836 13.7397L1.81189 12.9642C1.34476 12.828 0.82954 12.3353 0.9583 11.4026C2.23868 2.64119 8.31871 0 13.7625 0C16.5486 0 20.1887 0.964263 22.3872 3.71019C25.1733 7.09534 24.9077 11.6121 24.9077 16.5275V28.1396C24.9077 31.6298 26.019 33.1596 27.0659 35.0462C27.4364 35.717 27.5169 36.524 27.0498 37.027C25.8821 38.2951 23.8045 40.6531 22.661 41.9737L22.6447 41.9528Z" fill="black"/>
</svg>
