<svg width="197" height="48" viewBox="0 0 197 48" fill="none" xmlns="http://www.w3.org/2000/svg">
<path fill-rule="evenodd" clip-rule="evenodd" d="M136.168 35.1718C133.213 37.8371 129.418 39.1909 124.891 39.1909C120.362 39.1909 116.567 37.8371 113.613 35.1718C110.793 32.633 109.172 28.5732 109.172 24.0376C109.172 19.6105 110.811 15.6065 113.662 13.0496C116.645 10.3842 120.422 9.02447 124.887 9.01393C129.359 9.02447 133.136 10.3842 136.118 13.0496C138.973 15.6065 140.608 19.6105 140.608 24.0376C140.608 28.5732 138.989 32.633 136.168 35.1718ZM96.5174 24.0376C96.5174 24.2424 96.5281 24.4442 96.5353 24.646C92.0043 21.1781 85.4532 19.8876 81.4505 19.2145C74.0451 17.9014 68.3876 16.6997 68.3876 12.2665C68.3876 9.13891 71.7187 6.8636 78.1176 7.25361C83.9649 7.61049 86.4274 10.6161 87.1026 13.5164C87.1993 13.9922 87.4608 14.3386 88.1055 14.3431L98.6217 14.4184C98.6719 14.4184 98.7148 14.4139 98.7596 14.4108C97.2767 17.3186 96.5174 20.5562 96.5174 24.0376ZM78.6316 40.3037C73.5454 40.3037 67.9417 38.7843 66.6504 32.9055C66.5412 32.3438 66.226 32.1119 65.7138 32.0999L55.5468 31.9854V16.8744C56.8828 21.3031 61.3081 24.3689 70.8788 26.1805C77.2848 27.4694 88.3974 28.2886 88.3974 33.818C88.3974 37.673 85.0216 40.394 78.6316 40.3037ZM27.9919 39.1969C19.7895 39.1969 12.2749 33.7684 12.2749 24.0437C12.2749 16.4136 17.9091 9.01995 28.0456 9.01995C32.4369 9.01995 43.571 10.2849 43.571 24.0437C43.571 37.8386 31.948 39.1969 27.9919 39.1969ZM152.96 20.3318C155.293 22.9489 159.505 24.8869 166.348 26.182C172.753 27.4709 183.867 28.2901 183.867 33.8196C183.867 37.6745 180.489 40.3955 174.101 40.3052C169.017 40.3052 163.41 38.7858 162.12 32.907C162.013 32.3453 161.697 32.1134 161.183 32.1014L151.763 31.996C152.757 29.5309 153.264 26.8611 153.264 24.0392C153.264 22.799 153.162 21.5603 152.96 20.3318ZM173.406 48C184.687 48 197.983 44.4688 196.943 33.0154C195.793 22.848 183.21 20.2731 176.92 19.216C169.513 17.9029 163.856 16.7012 163.856 12.268C163.856 9.14042 167.187 6.8651 173.587 7.25511C179.435 7.612 181.897 10.6176 182.572 13.5179C182.669 13.9937 182.932 14.3401 183.575 14.3446L194.091 14.4199C194.892 14.4244 195.141 14.075 195.041 13.5962C192.981 2.99812 182.451 0 172.76 0C163.084 0 151.425 2.28586 150.597 12.4066C150.569 12.7981 150.558 13.1836 150.558 13.5616C149.018 10.8691 146.797 8.39654 143.935 6.20705C138.652 2.20153 132.065 0.0557159 124.882 0.00301167H124.644C121.212 0.00301167 117.854 0.534571 114.661 1.58866C111.415 2.66811 108.429 4.23282 105.846 6.20705C103.137 8.27908 100.996 10.6041 99.467 13.1294C97.189 2.9153 86.834 0 77.2884 0C68.4055 0 57.8499 1.93199 55.5468 10.0891V1.99222C55.5463 1.78481 55.448 1.58603 55.2734 1.4395C55.0988 1.29298 54.8622 1.21069 54.6155 1.21069H44.7118C44.4651 1.21109 44.2287 1.29376 44.0545 1.44057C43.8802 1.58737 43.7823 1.78631 43.7823 1.99373V4.17719C43.7823 4.54461 43.4904 4.67261 43.134 4.45878C39.6113 2.30995 34.3998 0.00451751 28.128 0.00451751C24.6035 0.00451751 21.2384 0.525537 18.124 1.55252C15.0078 2.58251 12.0456 4.15008 9.32705 6.21308C6.23236 8.58025 3.87552 11.2787 2.32997 14.2332C0.784418 17.1876 0 20.4884 0 24.0422C0 27.3595 0.694872 30.4706 2.06313 33.282C3.43138 36.0934 5.51421 38.6939 8.25609 41.0129C10.9962 43.3319 14.0622 45.0937 17.3629 46.2532C20.6635 47.4082 24.3008 47.994 28.1799 47.994C34.8457 47.994 39.8477 45.6072 43.1251 43.4373C43.4868 43.2054 43.7823 43.3304 43.7823 43.7099V46.0033C43.7823 46.4339 44.2014 46.7863 44.7136 46.7863H54.6173C54.8638 46.7855 55.1 46.7027 55.2741 46.556C55.4483 46.4093 55.5463 46.2106 55.5468 46.0033V38.2783C60.2157 47.5091 72.1127 47.9985 77.9367 47.9985C87.6721 47.9985 98.8993 45.3633 101.127 37.28C102.198 38.6178 103.42 39.8658 104.775 41.0069C110.084 45.4988 117.039 47.9142 124.9 47.9865H125.222C128.954 47.9865 132.556 47.3841 135.926 46.193C139.329 44.9832 142.415 43.2209 145.006 41.0069C146.945 39.3819 148.601 37.5345 149.924 35.5196C153.454 47.4203 167.051 48 173.406 48Z" fill="#0B0B0A"/>
</svg>
