<svg width="175" height="80" viewBox="0 0 175 80" fill="none" xmlns="http://www.w3.org/2000/svg">
<path fill-rule="evenodd" clip-rule="evenodd" d="M113.5 28.6242C112.668 27.5982 112.524 25.7836 110.835 25.6224C109.196 25.2122 107.564 24.7757 105.909 24.4209L96.1889 25.8851L95.0508 30.7316L110.767 32.6278L114.867 35.1564L125.573 36.2104L130.584 34.5247C125.391 32.9739 120.072 31.7384 115.024 29.8076C114.404 29.5427 113.973 29.0596 113.5 28.6242Z" fill="#DB0026"/>
<path d="M132.265 34.9106C131.918 34.4742 131.358 34.3 130.971 34.1321C130.593 33.9596 130.647 33.604 130.33 33.5005C130.006 33.3999 129.439 34.0365 128.999 33.9048C128.559 33.7657 128.591 32.973 128.224 32.856C127.847 32.7418 127.193 33.336 126.851 33.2303C126.507 33.1342 126.44 32.3013 126.108 32.1956C125.779 32.0989 125.081 32.6909 124.74 32.5891C124.398 32.4783 124.376 31.6675 123.996 31.5465C123.618 31.4351 122.953 32.0412 122.624 31.9321C122.282 31.8304 122.25 31.0213 121.887 30.9031C121.521 30.7911 120.849 31.3854 120.511 31.2785C120.162 31.17 120.067 30.3388 119.75 30.2382C119.426 30.1426 118.793 30.6334 118.278 30.6046C114.708 30.284 113.341 28.1179 113.098 28.7585C112.86 29.3861 113.843 30.9138 115.078 31.4295C116.063 31.8422 126.701 34.6811 126.98 34.8077C127.251 34.9378 127.923 35.2261 127.684 35.5999C127.313 36.0782 126.275 35.605 126.011 35.3941C125.743 35.1792 125.804 35.1017 125.553 35.0367C124.983 34.9067 124.667 35.9074 124.064 35.774C123.515 35.6553 123.553 34.5923 122.996 34.4679C122.381 34.3243 122.103 35.3319 121.518 35.2001C121.032 35.095 120.965 34.0122 120.444 33.8912C119.846 33.7516 119.574 34.7619 118.951 34.6217C118.414 34.5007 118.445 33.4446 117.884 33.3145C117.324 33.1867 116.933 34.1655 116.404 34.0501C115.873 33.9314 115.795 32.8526 115.324 32.7452C114.842 32.6417 114.462 33.1901 113.815 33.2716C113.815 33.2716 111.954 33.7567 109.011 30.794C106.063 27.8369 104.855 27.2625 103.177 28.4674C100.438 30.4338 98.7362 29.134 98.2412 28.5488C97.6453 27.8788 98.2688 27.2625 98.2688 27.2625C98.2688 27.2625 99.1386 28.5573 100.234 28.581C101.999 28.6319 103.329 26.3104 106.353 26.2685C110.184 26.1362 111.183 27.4479 112.23 27.552C113.2 27.6436 113.524 27.4932 114.195 27.1178H114.191C114.734 26.9312 115.206 27.9432 115.776 27.7386C116.377 27.5198 115.937 26.5003 116.585 26.2657C117.19 26.0565 117.586 27.0816 118.165 26.8729C118.775 26.6586 118.386 25.611 118.972 25.4069C119.574 25.1965 119.926 26.2323 120.551 26.0107C121.179 25.7959 120.774 24.7583 121.346 24.5497C121.935 24.3416 122.362 25.3611 122.941 25.162C123.49 24.9732 123.176 23.8882 123.748 23.6909C124.341 23.4851 124.725 24.5079 125.356 24.284C125.876 24.1087 125.589 23.0231 126.128 22.8264C126.666 22.6324 127.166 23.6394 127.726 23.437C128.252 23.2504 127.944 22.1711 128.504 21.9692C129.096 21.7629 129.553 22.7698 130.113 22.5799C130.666 22.3876 130.246 21.5175 130.969 21.172C130.969 21.172 131.969 20.8548 131.906 20.1469C131.898 20.0282 131.691 18.5152 130.044 18.1946C128.459 17.8876 115.948 21.2235 115.786 21.0312C114.634 18.8375 113.159 19.447 112.934 19.4962C112.705 19.5521 111.308 20.1255 109.761 19.5521C106.723 18.2269 104.298 21.5978 102.634 21.1545C101.101 20.7389 99.9298 20.9787 99.287 21.1895C98.6987 21.3857 97.7456 22.1241 95.724 21.4542C80.1026 16.3118 67.8934 20.8073 67.8934 20.8073C61.0097 23.0243 60.1293 20.8073 60.1293 20.8073C60.1293 20.8073 57.8637 17.8407 73.8141 14.3019C96.741 9.22457 97.4324 0.822743 97.1609 0.291268C96.7844 -0.478805 96.6413 0.429226 95.8858 1.26432C95.2524 1.95863 94.5158 1.61543 94.5158 1.61543C93.7944 1.28185 93.3334 2.07567 93.3334 2.07567C93.3334 2.07567 92.4056 3.46429 91.5845 2.67499C90.7962 1.91453 89.7487 3.62995 89.3575 3.69836C88.8895 3.77752 88.6608 3.55701 88.032 3.27884C87.0901 2.8774 86.079 4.53176 85.5617 4.6488C84.7699 4.82407 84.2128 3.74868 83.5318 4.20213C81.4949 5.55909 81.1741 5.74737 80.6251 5.21929C80.2205 4.82011 80.1606 4.38702 78.7994 5.64333C77.641 6.7142 77.0868 6.91435 76.6217 6.23361C76.1431 5.54835 76.2663 4.61318 74.2757 6.45412C73.3262 7.33388 72.8399 7.35027 72.2957 6.95563C71.8863 6.65823 71.8892 5.24247 70.4617 6.52479C69.1679 7.67821 68.2283 8.18424 67.8617 7.15973C67.4571 6.00858 65.9322 7.37176 65.5803 7.69234C65.2143 8.01349 64.4307 8.86272 63.8806 7.98635C63.3322 7.10489 62.0167 8.42001 61.2349 9.2551C60.6314 9.90361 60.144 9.40267 59.5076 8.99163C58.7839 8.5133 56.6185 11.4274 56.4221 11.6021C56.2238 11.7677 56.0731 11.6021 55.5769 11.1967C54.8145 10.5736 52.7576 14.0361 52.4251 14.2617C52.4251 14.2617 52.2843 14.5602 51.7236 14.044C50.9248 13.3124 46.6897 18.6882 45.0903 24.7702C43.0458 32.5671 46.3044 38.5462 46.3044 38.5462C46.3044 38.5462 47.2826 38.5756 47.6997 37.9378L48.3342 36.5593C48.848 35.4099 49.6908 35.7717 49.6908 35.7717L47.6938 41.5038C47.3783 42.2591 47.5689 43.3272 48.2668 44.3364C48.9243 45.3513 49.3776 46.0371 49.9049 46.5087C51.5266 47.981 51.3612 46.2395 51.4034 46.0224C51.5928 45.0895 52.6632 45.8059 53.5048 46.2525C55.0297 47.078 54.8602 45.2552 55.1951 44.6609C55.4268 44.2352 56.1775 44.216 56.991 44.8735C57.625 45.3841 58.2549 43.654 58.2549 43.654C59.0455 39.9681 57.1875 39.5418 56.1828 39.4875L54.1488 39.3982C54.1488 39.3982 54.2825 38.8373 54.4948 38.3121L54.5852 37.94C56.8033 32.6112 53.0966 31.5827 51.987 31.6675C50.7635 31.7727 50.8492 31.0213 50.8492 31.0213C50.8492 31.0213 57.5499 29.7491 56.3007 36.5995C56.3007 36.5995 56.0543 37.7925 55.906 38.4144L57.7476 38.6219C59.3311 38.8125 59.6126 40.6195 59.6126 40.6195C59.6126 40.6195 65.4407 42.1042 68.7462 41.5105C68.7462 41.5105 70.2236 41.1713 70.6341 40.2853C70.6341 40.2853 72.7748 35.4229 79.024 35.2177C79.024 35.2177 79.2439 35.8469 78.2457 36.1749C77.0487 36.5639 73.0593 36.8686 72.2306 41.2861V41.3036C72.1403 42.0285 72.342 43.572 73.9725 44.2872C75.3625 44.8916 75.8522 47.3308 76.1402 47.9889C76.9495 49.8592 78.1613 48.0714 78.1613 48.0714C78.1613 48.0714 78.9284 46.563 79.5876 47.3997C80.7008 48.8115 81.2175 48.1003 81.4703 47.2013C81.7471 46.2305 82.1506 45.8076 83.3154 46.9876C83.8133 47.4998 84.7905 47.104 84.8872 46.2271C85.0937 44.2974 86.4461 45.8325 86.6391 45.9065C86.8708 45.9913 88.2872 45.6843 87.4942 43.5081C87.4942 43.5081 86.4239 41.4342 81.5981 40.5398C80.4662 40.3328 80.6462 39.5424 80.6462 39.5424L81.709 39.6866C82.0257 39.7363 84.8327 40.0365 85.1312 40.0823C96.9023 41.2018 105.834 37.3526 106.103 37.0784C115.246 38.7672 127.68 38.1917 130.014 37.3809C132.36 36.5837 132.535 35.2629 132.265 34.9106ZM113.386 20.8435C113.576 20.5473 113.757 20.3793 113.923 20.2985C114.633 19.9095 115.085 21.1268 114.999 21.1715C114.995 21.1737 114.979 21.1788 114.972 21.1816C114.971 21.1833 114.971 21.1873 114.97 21.1895C114.859 21.2416 113.489 21.6159 113.354 21.5299C113.083 21.349 113.385 20.8441 113.385 20.8441L113.386 20.8435ZM108.186 21.2291C108.186 21.2291 108.363 21.0143 108.706 20.9046C109.043 20.7864 109.552 20.7666 110.228 21.1862C111.005 21.6622 110.985 22.0343 110.985 22.0343C110.953 22.0484 110.92 22.0609 110.887 22.0716C110.324 22.2813 108.013 22.555 108.013 22.555C107.881 22.3479 107.826 22.1037 107.858 21.8626C107.889 21.6216 108.005 21.3981 108.186 21.2291ZM65.0905 10.4504C65.4794 10.7387 65.1069 12.4004 64.8301 12.155L62.8349 11.1384C62.8349 11.1384 64.6929 10.1705 65.0905 10.4504ZM61.8454 11.511C62.2384 11.7932 61.8706 13.4583 61.5921 13.2106L59.6027 12.1912C59.6027 12.1912 61.4513 11.2227 61.8454 11.511ZM60.7229 14.7598C61.1176 15.0437 60.7475 16.7116 60.466 16.4707L58.4731 15.4389C58.4731 15.4389 60.3264 14.4777 60.7229 14.7598ZM58.8238 19.1213L56.8285 18.0996C56.8285 18.0996 58.6842 17.13 59.0777 17.4155C59.4766 17.6993 59.0953 19.3661 58.8238 19.1213ZM58.4484 22.4108L56.4584 21.3891C56.4584 21.3891 58.3106 20.4246 58.7047 20.7033C59.0994 20.9849 58.7323 22.6449 58.4484 22.4108ZM58.4115 12.669C58.8074 12.9528 58.4343 14.6106 58.1558 14.3748L56.1593 13.3497C56.1593 13.3497 58.0185 12.3818 58.4115 12.669ZM56.6813 15.202C57.0713 15.4847 56.7018 17.143 56.4262 16.9072L54.4338 15.885C54.4333 15.885 56.2872 14.9142 56.6807 15.2014L56.6813 15.202ZM53.1242 19.175C53.1242 19.175 54.9834 18.2025 55.3728 18.4903C55.7693 18.7719 55.3963 20.433 55.1171 20.1927L53.1242 19.175ZM54.652 23.3364L52.6626 22.3107C52.6626 22.3107 54.5183 21.3484 54.9095 21.6322C55.3054 21.9149 54.9347 23.575 54.652 23.3364ZM53.2339 16.3548C53.6262 16.6319 53.255 18.2964 52.9764 18.0561L50.9905 17.031C50.9905 17.031 52.8356 16.0687 53.2339 16.3548ZM51.4409 19.7054C51.8356 19.9875 51.4656 21.6588 51.1811 21.4129L49.1929 20.3923C49.1929 20.3923 51.0474 19.4323 51.4409 19.7054ZM48.8216 23.6745C48.8216 23.6745 50.6755 22.7139 51.0685 22.9971C51.4662 23.277 51.0879 24.9432 50.8146 24.7018L48.8216 23.6745ZM52.3758 27.4293L50.3858 26.4065C50.3858 26.4065 52.2409 25.438 52.635 25.7223C53.0292 26.0073 52.6526 27.6673 52.3764 27.4299L52.3758 27.4293ZM55.2321 29.6592L53.2403 28.6415C53.2403 28.6415 55.0972 27.6724 55.4907 27.9534C55.8813 28.2327 55.5048 29.9057 55.2321 29.6592ZM56.1247 26.1786L54.1318 25.1519C54.1318 25.1519 55.9881 24.1907 56.3816 24.466C56.7757 24.751 56.4021 26.4121 56.1247 26.1786ZM58.7733 31.1615L56.7851 30.1404C56.7851 30.1404 58.6302 29.1735 59.0285 29.4574C59.4214 29.7429 59.056 31.3961 58.7733 31.1615ZM59.7293 27.9557L57.7399 26.934C57.7399 26.934 59.5921 25.9728 59.9845 26.2566C60.378 26.536 60.0114 28.1999 59.7299 27.9551L59.7293 27.9557ZM60.3886 24.9246L58.3992 23.9012C58.3992 23.9012 60.2507 22.94 60.6484 23.2227C61.0431 23.5082 60.666 25.1632 60.3886 24.9246ZM63.1879 30.7742L61.1979 29.7463C61.1979 29.7463 63.0501 28.7874 63.4472 29.0656C63.846 29.3483 63.4689 31.0173 63.1879 30.7742ZM64.0501 27.5819L62.0607 26.5625C62.0607 26.5625 63.9164 25.5906 64.3105 25.8784C64.6982 26.1526 64.3246 27.82 64.0501 27.5819ZM64.7715 24.1997L62.7815 23.1775C62.7815 23.1775 64.6348 22.2191 65.0325 22.4967C65.4237 22.7811 65.0501 24.4406 64.7715 24.1997ZM67.5679 30.176L65.5709 29.1538C65.5709 29.1538 67.4271 28.1864 67.8248 28.4679C68.2154 28.7585 67.8389 30.4225 67.5679 30.176ZM68.2365 26.7604L66.2465 25.7337C66.2465 25.7337 68.1028 24.7697 68.4952 25.0495C68.8899 25.3367 68.5157 26.9917 68.2365 26.7604ZM68.9303 23.2544L66.9403 22.231C66.9403 22.231 68.7925 21.2681 69.1884 21.548C69.5814 21.8386 69.2101 23.4952 68.9303 23.2544ZM71.9268 28.8258L69.9338 27.8126C69.9338 27.8126 71.7895 26.8458 72.1784 27.1268C72.5784 27.4089 72.2048 29.0684 71.9262 28.8258H71.9268ZM72.471 25.4617L70.4758 24.4451C70.4758 24.4451 72.3303 23.4794 72.7215 23.7582C73.1262 24.0431 72.7467 25.7116 72.471 25.4617ZM73.1625 22.1654L71.1661 21.1488C71.1661 21.1488 73.0247 20.1769 73.4153 20.4574C73.8088 20.744 73.437 22.4114 73.1625 22.1654ZM76.2123 28.1145L74.2206 27.0912C74.2206 27.0912 76.071 26.1243 76.4692 26.407C76.8674 26.6931 76.4915 28.3509 76.2117 28.1145H76.2123ZM76.7554 24.9743L74.7625 23.9549C74.7625 23.9549 76.6199 22.9813 77.0111 23.2713C77.4041 23.5461 77.0322 25.2169 76.7554 24.9743ZM77.4117 21.6238L75.4158 20.6032C75.4158 20.6032 77.2721 19.6273 77.6698 19.918C78.0627 20.2029 77.6944 21.8607 77.4117 21.6238ZM80.1712 28.1739L78.1835 27.1522C78.1835 27.1522 80.0363 26.1815 80.4298 26.4715C80.8245 26.7508 80.4504 28.4125 80.1712 28.1739ZM80.8281 24.8019L78.8322 23.7819C78.8322 23.7819 80.6908 22.8094 81.0855 23.0978C81.4761 23.3833 81.1031 25.0416 80.8287 24.8019H80.8281ZM81.5741 21.4451L79.5812 20.4251C79.5812 20.4251 81.4368 19.4526 81.8316 19.7421C82.2292 20.0231 81.8527 21.6877 81.5741 21.4451ZM84.3207 28.1739L82.3277 27.1472C82.3277 27.1472 84.1811 26.182 84.5752 26.4721C84.9682 26.7508 84.6022 28.4125 84.3207 28.1739ZM84.9582 24.9885L82.97 23.9634C82.97 23.9634 84.821 23.0062 85.2145 23.2793C85.6098 23.5654 85.238 25.2316 84.9582 24.9885ZM85.7118 21.7289L83.726 20.7084C83.726 20.7084 85.5781 19.7444 85.974 20.0231C86.3623 20.3058 85.9904 21.9698 85.7118 21.7289ZM88.2221 28.6551L86.2291 27.6227C86.2291 27.6227 88.0854 26.6654 88.4789 26.951C88.8772 27.228 88.5047 28.8925 88.2221 28.6551ZM88.9259 25.5663L86.9353 24.548C86.9353 24.548 88.7927 23.5823 89.1833 23.8644C89.5822 24.1528 89.1968 25.8111 88.9259 25.5663ZM89.6871 22.4114L87.6907 21.3942C87.6907 21.3942 89.5476 20.4274 89.944 20.7033C90.337 20.9849 89.9581 22.6454 89.6871 22.4114ZM92.7915 26.2323L90.8027 25.2214C90.8027 25.2214 92.6542 24.2517 93.0519 24.5299C93.4431 24.8154 93.0706 26.4772 92.7915 26.2323Z" fill="#004526"/>
<path d="M39.7033 54.8317C39.2834 53.7601 38.4857 53.2983 37.0242 53.2772C36.8909 53.2727 30.1309 53.2829 30.1309 53.2829L20.1244 79.4801H24.9953C25.3923 79.5124 25.7914 79.4484 26.156 79.2939C27.1041 78.8782 27.569 77.8219 27.704 77.4621C27.704 77.4706 29.0649 73.8121 29.1585 73.5729L39.226 73.5695C39.906 75.5364 40.5876 77.5028 41.2709 79.4687H47.8621L43.6812 66.7194L39.7033 54.8317ZM37.6726 68.1925L30.8895 68.1937C31.6209 66.2679 33.4425 61.3948 34.2207 59.4224C34.8928 61.4119 37.6555 68.1282 37.6726 68.1925ZM87.1379 53.0734H87.1343C79.3367 53.0836 73.6812 58.7117 73.6812 66.449C73.6812 74.0308 79.4617 79.7506 87.1379 79.7506C94.8105 79.7506 100.826 73.9118 100.826 66.449C100.826 58.9475 94.8105 53.0734 87.1379 53.0734ZM87.3333 73.9061C83.3584 73.9061 80.244 70.6006 80.244 66.3784C80.244 62.1949 83.2915 59.0431 87.3286 59.0431C91.3366 59.0431 94.2432 62.126 94.2432 66.3784C94.2432 70.6729 91.2703 73.9061 87.3333 73.9061ZM118.466 64.0984L118.21 64.0272C118.217 64.0301 115.675 63.287 115.669 63.2802L115.288 63.1503C113.212 62.4289 111.737 61.8236 111.737 60.6608V60.5754C111.943 58.6462 115.669 58.6257 115.705 58.6257C117.76 58.6257 119.339 58.9275 121.339 59.7008L121.382 59.7156L121.468 59.7401C121.93 59.8301 122.334 59.8426 122.661 59.7726L123.216 59.571C124.01 59.1502 124.801 56.9232 125.105 55.9854L125.203 55.6847L124.958 55.4683C124.862 55.3801 124.279 54.9183 122.16 54.1581C120.004 53.382 116.951 53.2607 116.951 53.2607L115.445 53.2544C107.579 53.2544 104.575 57.9219 104.481 61.0566C104.415 64.1798 106.264 65.7873 109.06 67.2473C110.229 67.8702 112.364 68.4431 113.913 68.8587C113.904 68.8525 115.515 69.3109 115.515 69.3109C118.445 70.1963 119.565 71.1791 119.357 72.704C119.264 73.208 118.274 74.0422 116.023 74.0422C114.312 74.0422 112.765 73.7893 111.155 73.249C110.381 72.9534 109.581 72.5713 108.736 72.0896L108.696 72.0651L108.609 72.0287C108.142 71.8613 107.722 71.7912 107.363 71.8203L106.744 71.9484C105.841 72.273 104.585 74.4783 104.083 75.4105L103.885 75.7789L104.227 76.0391C104.288 76.0784 105.685 77.1466 106.872 77.8151C108.27 78.5593 109.84 79.0991 111.693 79.459C112.44 79.59 113.627 79.7563 115.486 79.7563C121.581 79.7563 126.01 76.7867 126.519 72.3664C126.74 68.3548 124.18 65.7378 118.466 64.0984ZM131.497 53.3148C131.244 53.3108 129.915 53.3364 129.15 54.0163C128.798 54.3272 128.614 54.7423 128.614 55.211L128.61 59.3557C128.61 59.3557 135.964 59.35 136.927 59.35V79.4903L143.739 79.4846V59.35C144.648 59.3489 149.092 59.3489 149.092 59.3489C149.344 59.3489 150.671 59.321 151.438 58.6445C151.61 58.4921 151.747 58.3067 151.839 58.1003C151.932 57.894 151.978 57.6712 151.976 57.4465V53.3148H131.497ZM14.6382 73.5616H6.99041C6.99041 72.5953 6.96909 55.7046 6.96909 55.7046C6.96909 54.9633 6.73872 54.375 6.27443 53.9634C5.53358 53.2949 4.4303 53.2983 4.01931 53.3068L0 53.2983L0.0106597 79.4801H17.0591L17.0721 75.3194C17.0721 74.7869 16.8352 73.5616 14.6382 73.5616ZM63.3856 58.8808C65.0379 58.7749 66.4284 58.8808 67.7401 59.2259C68.4449 59.4514 69.0803 59.4964 69.6192 59.3506L70.1628 59.1183C70.9256 58.6667 71.4716 56.3652 71.7292 55.039L71.7885 54.7281L71.5107 54.5356C71.4414 54.4867 71.2241 54.3415 68.7552 53.7003C67.0469 53.2643 65.2863 53.0467 63.5189 53.0529L63.4099 53.054C57.768 53.054 49.271 56.6356 49.027 66.4957V66.5526C49.271 76.4161 57.768 79.9965 63.4141 79.9965L63.5189 80C64.5055 80.0039 66.5036 79.9259 68.7552 79.3451C71.2247 78.7097 71.4414 78.5622 71.5131 78.5121L71.7891 78.3242L71.7298 78.0121C71.4722 76.6786 70.9262 74.3821 70.1634 73.9266V73.9237L69.6216 73.6942C69.0809 73.5524 68.4443 73.5986 67.7301 73.8292C66.4254 74.1663 65.0355 74.275 63.3655 74.1697C59.0921 73.7677 56.5255 70.9713 56.3325 66.5014C56.5249 62.0753 59.0921 59.2789 63.3856 58.8808ZM172.16 79.4681C173.212 79.4453 175 78.8497 175 76.838L174.979 73.5525L162.973 73.5576C162.973 73.5576 162.994 69.792 162.994 69.1685H172.904L172.888 63.1111C172.888 63.1111 163.992 63.1213 163.011 63.1213C163.008 62.405 163.011 60.0766 163.011 59.3563C163.993 59.3563 172.109 59.3449 172.109 59.3449C172.358 59.3495 173.717 59.3506 174.453 58.6445C174.966 58.1491 174.99 57.2478 174.99 56.7786V53.3199H156.104L156.107 79.4892L172.16 79.4681Z" fill="black"/>
</svg>
