<svg width="269" height="54" viewBox="0 0 269 54" fill="none" xmlns="http://www.w3.org/2000/svg">
<path d="M121.992 47.2387H131.676V27.1352C131.676 16.4975 124.951 10.8631 116.836 10.8631C111.456 10.8631 107.421 13.207 104.507 16.4524H103.206C101.01 13.5676 97.1987 10.8631 91.5048 10.8631C86.349 10.8631 82.2692 13.1619 80.1172 15.7763H78.817V11.8548H69.8055V47.1936H79.3998V28.7128C79.3998 22.4023 81.238 20.2387 87.694 20.2387C94.15 20.2387 95.8985 22.4023 95.8985 28.7128V47.1936H105.583V28.7128C105.583 22.4023 107.376 20.2387 113.787 20.2387C120.243 20.2387 121.992 22.4023 121.992 28.7128V47.2387ZM31.2937 42.1903C29.59 40.9282 28.783 39.0801 28.783 36.2404C28.783 32.6795 29.859 28.3522 31.6523 26.4591C32.9077 25.197 34.701 24.611 37.122 24.611C40.5742 24.611 44.8333 25.5125 46.5818 27.3606C47.7923 28.5776 48.3303 30.2454 48.3303 32.5893C48.3303 35.9699 47.3888 40.7028 45.2817 42.6861C44.0712 43.7679 42.502 44.2638 40.2155 44.2638C37.122 44.2187 33.2215 43.4975 31.2937 42.1903ZM46.4922 49.6277L46.0887 52.8731L55.1002 54L59.3593 18.9766L50.3478 17.8498L49.9443 21.2304H48.8683C47.5233 18.8414 43.9367 15.596 37.122 15.596C27.6622 15.596 20.6682 22.6277 19.4128 32.2287C19.2783 33.1753 19.2335 34.1219 19.2335 35.0684C19.2335 44.2638 25.4205 51.7913 35.1045 52.8731C35.6425 52.9182 36.1805 52.9633 36.7185 52.9182C40.7535 52.9182 43.8022 51.1603 45.3713 49.6277H46.4922ZM249.991 39.2604C242.772 39.2604 240.396 36.8714 240.396 29.6143C240.396 22.3573 242.772 19.8781 249.991 19.8781C257.209 19.8781 259.585 22.3573 259.585 29.6143C259.585 36.8714 257.209 39.2604 249.991 39.2604ZM203.723 39.2604C196.505 39.2604 194.128 36.8714 194.128 29.6143C194.128 22.3573 196.505 19.8781 203.723 19.8781C210.941 19.8781 213.317 22.3573 213.317 29.6143C213.317 36.8714 210.941 39.2604 203.723 39.2604ZM158.665 39.2604C151.447 39.2604 149.071 36.8714 149.071 29.6143C149.071 22.3573 151.447 19.8781 158.665 19.8781C165.883 19.8781 168.259 22.3573 168.259 29.6143C168.259 36.8714 165.883 39.2604 158.665 39.2604ZM5.87317 0L0 47.1936L9.5495 48.3656L15.333 1.17196L5.87317 0ZM259.989 43.8581V47.2838H269V11.9449H259.989V15.3706H258.688C257.254 13.4324 253.622 10.9082 248.735 10.9082C238.02 10.9082 230.668 19.1118 230.668 29.6143C230.668 40.1169 238.02 48.2755 248.735 48.2755C253.622 48.2755 257.254 45.7512 258.688 43.813L259.989 43.8581ZM158.665 10.9082C146.74 10.9082 139.342 19.1118 139.342 29.6143C139.342 40.1169 146.74 48.2755 158.665 48.2755C170.591 48.2755 177.988 40.1169 177.988 29.6143C177.988 19.1118 170.591 10.9082 158.665 10.9082ZM213.855 43.8581V47.2838H222.867V0.405673H213.317V15.3255H212.017C210.582 13.3873 207.354 10.8631 202.467 10.8631C191.752 10.8631 184.4 19.0668 184.4 29.5693C184.4 40.0718 191.752 48.2304 202.467 48.2304C207.354 48.2304 211.165 45.7062 212.555 43.768C212.555 43.8581 213.855 43.8581 213.855 43.8581Z" fill="black"/>
</svg>
