<svg width="124" height="56" viewBox="0 0 124 56" fill="none" xmlns="http://www.w3.org/2000/svg">
<g clip-path="url(#clip0_11_103)">
<rect width="124" height="56" rx="28" fill="#E21235"/>
<mask id="mask0_11_103" style="mask-type:luminance" maskUnits="userSpaceOnUse" x="0" y="0" width="124" height="56">
<path d="M124 0H0V56H124V0Z" fill="white"/>
</mask>
<g mask="url(#mask0_11_103)">
<path d="M13.3626 35.3082C16.0981 35.3082 17.5366 32.3398 18.7922 28.3222H18.9946C18.4876 31.7935 18.6497 35.3082 21.6692 35.3082C24.384 35.3082 25.681 32.3176 26.816 28.3222H27.0183C26.4917 31.7279 26.6331 35.3082 29.7332 35.3082C32.448 35.3082 33.9681 32.3832 34.5557 28.3445H32.6514C32.4284 29.239 32.0432 30.1124 31.3348 30.1124C29.8561 30.1124 30.6667 27.4488 31.3142 24.1089L32.2467 19.2623H27.6875C27.6875 19.2623 25.2763 30.1124 23.3721 30.1124C21.9739 30.1124 22.6626 27.144 23.2502 24.0654L24.1621 19.2623H19.6029C18.752 22.8638 16.949 30.1124 15.2668 30.1124C14.7194 30.1124 14.578 29.7408 14.578 29.2613C14.578 28.9553 14.6585 28.6282 14.7608 28.3445H10.5868C10.3638 29.3047 10.2419 30.2214 10.2419 31.1605C10.2419 33.5181 11.0525 35.3082 13.3626 35.3082ZM37.0681 35.3082C38.2639 35.3082 39.216 34.3035 39.216 33.0163C39.216 31.729 38.2639 30.7243 37.0681 30.7243C35.8723 30.7243 34.9201 31.729 34.9201 33.0163C34.9201 34.3035 35.8723 35.3082 37.0681 35.3082ZM49.4072 30.0913C49.4072 31.1827 48.6575 31.6634 47.8273 31.6634H44.91V28.4758H47.848C48.7805 28.4758 49.4083 29.0866 49.4083 30.0913H49.4072ZM44.909 22.5812H47.5836C48.3539 22.5812 48.9611 23.0396 48.9611 23.9998C48.9611 24.96 48.2517 25.4184 47.5836 25.4184H44.909V22.5801V22.5812ZM50.5617 26.7513C51.6563 26.2929 52.7499 25.2448 52.7499 23.2589C52.7499 20.7267 50.9872 19.2636 48.2723 19.2636H41.1811V34.9811H48.3539C51.109 34.9811 53.196 33.5403 53.196 30.6153C53.196 28.5637 52.0611 27.2097 50.5617 26.7079V26.7513ZM109.604 27.144C109.604 29.3703 108.267 31.3785 105.834 31.3785C103.403 31.3785 101.964 29.4137 101.964 27.0995C101.964 24.7853 103.301 22.8649 105.732 22.8649C108.163 22.8649 109.602 24.8299 109.602 27.144H109.604ZM98.1762 27.1217C98.1762 31.8592 101.499 35.3082 105.794 35.3082C110.089 35.3082 113.392 31.8158 113.392 27.1217C113.392 22.4277 110.07 18.9353 105.776 18.9353C101.481 18.9353 98.1773 22.4277 98.1773 27.1217H98.1762ZM78.9678 23.0831V31.1605H74.5512C75.1791 29.6974 75.4837 26.8814 75.4837 23.2577V23.0831H78.969H78.9678ZM82.6957 31.1605V19.2623H71.9779V20.4628C71.9779 25.8544 71.7352 29.9365 70.6003 31.1593H69.0802V37.4677H72.8081V34.9788H81.0951V37.4677H84.823V31.1593H82.6957V31.1605ZM90.0709 31.1605V28.8463H96.1905V25.2448H90.0709V23.0842H96.7573V19.2623H86.343V34.9799H96.9804V31.1593H90.0709V31.1605ZM63.9759 19.2623L58.6475 28.1909V19.2623H54.9196V34.9799H58.6475L63.9759 26.0514V34.9799H67.7037V19.2623H63.9759Z" fill="white"/>
</g>
</g>
<defs>
<clipPath id="clip0_11_103">
<rect width="124" height="56" rx="28" fill="white"/>
</clipPath>
</defs>
</svg>
