<svg width="165" height="56" viewBox="0 0 165 56" fill="none" xmlns="http://www.w3.org/2000/svg">
<path fill-rule="evenodd" clip-rule="evenodd" d="M48.2587 21.2901C45.0856 21.2901 42.3658 22.2655 40.2039 24.3171C38.1467 26.2006 36.9611 28.5886 36.6822 31.3802H59.068C59.068 28.555 58.1615 26.2679 56.3134 24.418C54.3956 22.2655 51.7107 21.2901 48.2587 21.2901ZM146.973 21.2901C143.73 21.2901 141.08 22.2655 138.918 24.3171C136.861 26.2006 135.675 28.5886 135.396 31.3802H157.782C157.782 28.555 156.91 26.2679 155.097 24.418C153.075 22.2655 150.39 21.2901 146.973 21.2901ZM116.393 21.2901C113.15 21.2901 110.5 22.2655 108.338 24.3171C106.281 26.2006 105.095 28.5886 104.816 31.3802H127.272C127.272 28.555 126.365 26.2679 124.517 24.418C122.53 22.2655 119.845 21.2901 116.393 21.2901ZM101.887 21.9964C100.806 21.4919 99.6904 21.2228 98.6095 21.2228C96.064 21.2228 93.8673 22.3664 91.9146 24.6198C90.0317 26.9069 89.0554 29.6312 89.0554 32.7928V55.1592H81.8724V21.9964H74.794V55.1928H67.6109V21.9964H63.1826C65.2399 24.7544 66.2511 28.0841 66.2511 32.1538C66.2511 33.7009 66.0418 35.1135 65.6583 36.358H36.4729C36.4729 40.9321 37.7631 44.43 40.3434 46.9189C42.6796 49.0378 45.5738 50.1478 49.2001 50.1478C53.3147 50.1478 56.697 49.0042 59.5213 46.7171L62.5549 51.7285C61.4391 52.8048 59.7654 53.7129 57.4292 54.4865C54.5699 55.5291 51.3271 56 47.8402 56C42.7842 56 38.4605 54.3183 34.9038 50.9886C34.8341 50.9213 34.7992 50.8877 34.7295 50.8204C34.7295 50.8204 34.7295 50.8204 34.6598 50.7532C34.6598 50.7532 34.59 50.7532 34.59 50.6859C34.5203 50.6186 34.5203 50.6186 34.4854 50.585C34.4854 50.585 34.4157 50.585 34.4157 50.5177C34.3459 50.4505 34.3111 50.4168 34.2413 50.3496C34.2413 50.3496 34.2413 50.2823 34.1716 50.2823C34.1019 50.215 34.067 50.1814 33.9973 50.1141C33.9973 50.1141 33.9973 50.1141 33.9275 50.0469C33.8578 49.9796 33.8229 49.946 33.8229 49.8787C33.7532 49.8787 33.7532 49.8114 33.7532 49.8114C33.7532 49.7441 33.6834 49.7441 33.6834 49.7441L33.6137 49.6769L33.544 49.6096C33.4742 49.5423 33.4742 49.5423 33.4393 49.5087C33.3696 49.4414 33.3696 49.4414 33.3347 49.4078L33.265 49.3405C33.1953 49.2733 33.1953 49.2396 33.1604 49.2396C33.1604 49.1724 33.0907 49.1724 33.0558 49.1387C33.0209 49.1051 32.9861 49.0715 32.9512 49.0378L32.8814 48.9706C32.8117 48.9033 32.7768 48.8697 32.7071 48.7688C32.6025 48.6006 32.4979 48.4997 32.3933 48.3652C32.1841 48.0961 31.9748 47.7934 31.8005 47.5243C31.2077 48.4661 30.5452 49.3069 29.813 50.1141C26.3609 53.8475 21.6536 55.7309 15.7956 55.7309C13.843 55.7309 11.9601 55.361 10.1469 54.6883C8.33368 54.0156 6.86919 53.1748 5.92773 52.1994L3.38229 55.7309H0V0.168168H7.18301V19.0703C7.88039 18.1958 9.13567 17.355 11.0186 16.615C12.9015 15.8414 14.7496 15.4715 16.5628 15.4715C22.0721 15.4715 26.605 17.2877 30.0571 20.9874C30.859 21.8619 31.6262 22.8709 32.2538 23.8463L32.3235 23.779C32.3933 23.7117 32.3933 23.6781 32.3933 23.6781C32.3933 23.6108 32.463 23.6108 32.463 23.5772C32.5328 23.5099 32.5328 23.4763 32.5676 23.409C32.5676 23.3417 32.6374 23.3417 32.6374 23.3081C32.7071 23.2408 32.7071 23.2072 32.742 23.1399L32.8117 23.0727C32.8814 23.0054 32.8814 22.9718 32.9163 22.9045C32.9163 22.9045 32.9163 22.9045 32.9861 22.9045C33.0558 22.8372 33.0558 22.8036 33.1604 22.7363C33.1604 22.7363 33.1604 22.7363 33.1604 22.6691C33.2301 22.6018 33.265 22.5682 33.265 22.5009C33.265 22.5009 33.265 22.5009 33.3347 22.5009C33.4045 22.4336 33.4393 22.4 33.4393 22.3327C33.4393 22.3327 33.5091 22.3327 33.5091 22.2655C33.5788 22.1982 33.6137 22.1646 33.6137 22.0973C33.6137 22.0973 33.6137 22.03 33.6834 22.03C33.7532 21.9628 33.788 21.9291 33.788 21.8619L33.8578 21.7946C33.9624 21.6937 34.067 21.5255 34.1716 21.4246C34.2413 21.3574 34.2762 21.3237 34.3459 21.2565C34.4157 21.1892 34.4506 21.1556 34.5203 21.0883C34.59 21.021 34.6249 20.9874 34.6946 20.9201C34.7644 20.8529 34.7992 20.8192 34.869 20.752C34.869 20.752 34.869 20.752 34.9387 20.6847C35.0084 20.6174 35.0433 20.5838 35.1131 20.5165C38.7394 17.0186 43.0283 15.3033 48.0146 15.3033C53.8028 15.3033 58.3358 16.8505 61.6135 19.9784C61.6832 20.0456 61.7181 20.0793 61.8227 20.1465V15.976H67.7156C67.7156 10.9646 69.0057 7.06307 71.5511 4.27148C74.0966 1.41262 77.4789 0 81.6283 0C83.7204 0 85.952 0.369974 88.358 1.07628L86.3705 6.18859C84.906 5.71772 83.5112 5.44865 82.2559 5.44865C80.0592 5.44865 78.2808 6.22222 76.8164 7.83664C75.4216 9.45105 74.6545 11.4691 74.6545 13.9243C74.6545 14.597 74.7242 15.2697 74.8637 15.9423H81.9421H83.1276H89.16V22.1982C91.7403 17.5568 95.6805 15.236 100.806 15.236C102.096 15.236 103.944 15.4378 106.35 15.8751L104.99 18.9021C108.233 16.4469 111.964 15.2024 116.114 15.2024C121.902 15.2024 126.435 16.7496 129.713 19.8775C130.515 20.6511 131.282 21.5592 131.874 22.4673C132.467 21.7273 133.06 21.021 133.757 20.382C137.384 16.8841 141.673 15.1688 146.659 15.1688C152.447 15.1688 156.98 16.7159 160.258 19.8438C163.431 22.8709 165 26.8733 165 31.8174C165 33.3646 164.791 34.7772 164.407 36.0216H135.222C135.222 40.5958 136.512 44.0937 139.092 46.5826C141.429 48.7015 144.323 49.8114 147.949 49.8114C152.064 49.8114 155.516 48.6679 158.27 46.3808L161.304 51.3922C160.223 52.4685 158.514 53.3766 156.178 54.1502C153.319 55.1928 150.146 55.6637 146.589 55.6637C141.533 55.6637 137.209 53.982 133.653 50.6523C129.713 47.0198 127.76 42.1766 127.725 36.0889H104.746C104.746 40.6631 106.037 44.161 108.617 46.6499C110.883 48.7688 113.847 49.8787 117.474 49.8787C121.588 49.8787 124.97 48.7351 127.725 46.4481L130.759 51.4595C129.643 52.5357 127.969 53.4438 125.633 54.2174C122.774 55.2601 119.601 55.7309 116.044 55.7309C110.988 55.7309 106.664 54.0493 103.108 50.7195C99.1674 47.0198 97.1798 42.1429 97.1798 35.9544C97.0752 30.4384 98.6792 25.6961 101.887 21.9964ZM7.28762 24.3508V46.8853C7.28762 47.2889 8.19421 47.9279 9.97253 48.8024C11.8206 49.6769 13.1107 50.1141 14.0871 50.1141C18.9339 50.1141 22.4556 48.9706 24.6175 46.7171C26.7096 44.4637 27.7906 40.6967 27.7906 35.3826C27.7906 30.9429 26.5353 27.4787 24.0596 25.0234C21.5839 22.5345 18.2713 21.3237 14.0871 21.3237C13.1805 21.3237 11.9949 21.6937 10.4258 22.4C8.82185 23.1063 7.77578 23.779 7.28762 24.3508Z" fill="#4CBCC0"/>
</svg>
