<svg width="156" height="39" viewBox="0 0 156 39" fill="none" xmlns="http://www.w3.org/2000/svg">
<path d="M90.4802 20.7218C90.4802 16.9691 88.8989 13.6534 83.5511 13.6534C80.8074 13.6534 78.6279 14.4478 77.4462 15.1432L78.3123 18.1539C79.4003 17.4605 81.1363 16.8894 82.7749 16.8894C85.4822 16.8855 85.9258 18.4414 85.9258 19.4417V19.6826C80.0159 19.6729 76.2799 21.7474 76.2799 25.972C76.2799 28.5535 78.1766 30.9737 81.492 30.9737C83.5148 30.9737 85.2241 30.1443 86.2451 28.8351H86.3445C86.3445 28.8351 87.0176 31.6963 90.7402 30.6027C90.5509 29.4043 90.4802 28.1418 90.4802 26.6072V20.7218ZM86.0712 24.6843C86.0712 24.9873 86.0463 25.302 85.9583 25.5719C85.618 26.7276 84.4441 27.695 82.9832 27.695C81.7501 27.695 80.7826 26.9859 80.7826 25.5C80.7826 23.2274 83.2528 22.602 86.0712 22.6175M0 8.54743C0 8.54743 3.86026 24.5916 4.47404 27.1905C5.19668 30.2284 6.49116 31.3511 10.2271 30.6033L12.64 20.6544C13.2499 18.1894 13.6648 16.4219 14.0587 13.9104H14.1256C14.399 16.4472 14.7929 18.1895 15.2919 20.6622C15.2919 20.6622 16.2765 25.1821 16.7871 27.5498C17.2842 29.9176 18.6837 31.4113 22.349 30.6033L28.0926 8.54743H23.456L21.4848 18.0885C20.9628 20.8525 20.4886 23.0299 20.1196 25.5628H20.0527C19.7201 23.0571 19.2975 20.969 18.7545 18.2613L16.7125 8.54743H11.8752L9.69556 18.0127C9.07417 20.903 8.49298 23.2202 8.12772 25.6735H8.06467C7.68799 23.3718 7.17753 20.4407 6.63642 17.6592C6.63642 17.6592 5.34201 10.8822 4.88505 8.54743M41.0138 20.7218C41.0138 16.9691 39.4287 13.6534 34.0809 13.6534C31.345 13.6534 29.1615 14.4478 27.9799 15.1432L28.846 18.1539C29.9301 17.4605 31.6643 16.8894 33.3085 16.8894C36.0159 16.8855 36.4594 18.4414 36.4594 19.4417V19.6826C30.5496 19.6729 26.8098 21.7474 26.8098 25.972C26.8098 28.5535 28.7141 30.9737 32.0142 30.9737C34.0561 30.9737 35.7502 30.1443 36.7711 28.8351H36.8743C36.8743 28.8351 37.5512 31.6963 41.27 30.6027C41.0788 29.4043 41.0138 28.1418 41.0138 26.6072V20.7218ZM36.601 24.6843C36.601 24.9873 36.5762 25.302 36.492 25.5719C36.1477 26.7276 34.974 27.695 33.5093 27.695C32.2837 27.695 31.3124 26.9859 31.3124 25.5C31.3124 23.2274 33.7827 22.602 36.601 22.6175M47.8326 30.5956V8.54736H43.4198V30.5956H47.8326ZM104.024 8.54743V24.815C104.024 27.0604 104.439 28.6259 105.331 29.5856C106.115 30.4266 107.398 30.9743 108.926 30.9743C110.238 30.9743 111.52 30.7179 112.127 30.4945L112.073 26.9924C111.62 27.0992 111.102 27.1905 110.39 27.1905C108.884 27.1905 108.387 26.2213 108.387 24.2051V17.9778H112.23V13.7646H108.387V8.54736M92.618 14.036V30.6027H97.18V22.1184C97.18 21.6619 97.2085 21.2676 97.2794 20.9024C97.6197 19.1135 98.9561 17.9811 100.882 17.9811C101.419 17.9811 101.784 18.0412 102.189 18.1054V13.7622C101.849 13.7 101.618 13.667 101.199 13.667C99.4916 13.667 97.5566 14.7683 96.7402 17.1672H96.6274V14.036M50.3952 14.036V30.6027H54.8403V20.8791C54.8403 20.4226 54.8901 19.9564 55.0488 19.535C55.4102 18.5502 56.3069 17.41 57.7466 17.41C59.5362 17.41 60.3813 18.9445 60.3813 21.1588V30.6027H64.8152V20.7626C64.8152 20.3333 64.8745 19.8069 64.9987 19.4262C65.3544 18.3094 66.3256 17.41 67.6679 17.41C69.4765 17.41 70.3523 18.9115 70.3523 21.522V30.6027H74.7823V20.8344C74.7823 15.7026 72.2125 13.667 69.2948 13.667C68.012 13.667 66.991 13.9875 66.0732 14.5624C65.2969 15.0461 64.6164 15.7279 64.0064 16.6194H63.9395C63.2378 14.8363 61.5897 13.667 59.4367 13.667C56.6759 13.667 55.4217 15.083 54.6837 16.2795H54.6167V14.036" fill="#0071CE"/>
<path d="M136.105 13.2926C136.977 13.2926 137.711 12.8303 137.806 12.2359L138.67 2.29091C138.67 1.30606 137.529 0.5 136.105 0.5C134.673 0.5 133.539 1.30606 133.539 2.29091L134.411 12.2359C134.502 12.8303 135.233 13.2926 136.105 13.2926ZM130.802 16.4045C131.234 15.6275 131.209 14.7651 130.743 14.3805L122.674 8.64854C121.835 8.15127 120.579 8.74374 119.86 9.99849C119.143 11.2513 119.288 12.6576 120.11 13.1452L129.043 17.3524C129.615 17.5699 130.362 17.1659 130.802 16.3967M141.406 16.3964C141.863 17.1655 142.61 17.5695 143.167 17.3636L152.1 13.1448C152.929 12.6475 153.054 11.2548 152.352 10.002C151.635 8.7472 150.371 8.15866 149.534 8.64617L141.463 14.3724C141.016 14.7628 140.983 15.6291 141.416 16.4041M136.105 25.7152C136.977 25.7152 137.711 26.1774 137.806 26.7718L138.67 36.7169C138.67 37.7017 137.529 38.5 136.105 38.5C134.673 38.5 133.539 37.7017 133.539 36.7169L134.411 26.7718C134.502 26.1774 135.233 25.7152 136.105 25.7152ZM141.406 22.612C141.863 21.8409 142.61 21.4291 143.167 21.6524L152.1 25.8636C152.929 26.3511 153.054 27.7554 152.352 29.0103C151.635 30.2553 150.371 30.8477 149.534 30.3602L141.463 24.6263C141.016 24.2397 140.983 23.3773 141.416 22.612M130.802 22.6034C131.234 23.3785 131.209 24.239 130.743 24.6274L122.674 30.3517C121.835 30.8489 120.579 30.2545 119.86 29.0094C119.143 27.7566 119.288 26.3503 120.11 25.8628L129.043 21.6517C129.615 21.4302 130.362 21.8382 130.802 22.6034ZM154.714 29.4875H154.825C154.976 29.4875 155.037 29.536 155.054 29.6584C155.086 29.7944 155.104 29.8857 155.136 29.9245H155.423C155.398 29.8954 155.366 29.8215 155.348 29.6506C155.316 29.503 155.241 29.4195 155.136 29.3904V29.3632C155.282 29.3301 155.366 29.231 155.366 29.1087C155.366 28.998 155.316 28.9183 155.266 28.8678C155.171 28.8212 155.079 28.7844 154.876 28.7844C154.697 28.7844 154.564 28.7999 154.459 28.8251V29.9245H154.714V29.4875ZM154.721 28.9863L154.851 28.9689C155.004 28.9689 155.086 29.0408 155.086 29.1418C155.086 29.2544 154.976 29.3068 154.834 29.3068H154.721V28.9863ZM154.884 28.2404C154.257 28.2404 153.76 28.7378 153.76 29.3476C153.76 29.9731 154.257 30.4703 154.884 30.4703C155.519 30.4703 156 29.9731 156 29.3476C156 28.7377 155.519 28.2404 154.884 28.2404ZM154.884 28.4639C155.366 28.4639 155.723 28.8601 155.723 29.3476C155.723 29.8391 155.366 30.247 154.884 30.2392C154.402 30.2392 154.037 29.8391 154.037 29.3476C154.037 28.8601 154.402 28.4639 154.876 28.4639" fill="#FCB61A"/>
</svg>
