<?xml version="1.0" encoding="utf-8"?>
    <svg xmlns="http://www.w3.org/2000/svg" xmlns:xlink="http://www.w3.org/1999/xlink">
    <symbol fill="none" viewBox="0 0 283 72" id="icon-logo" xmlns="http://www.w3.org/2000/svg">
        <path d="M0 25.012 15.422 1.73h8.022l5.74 23.282h-8.126L17.151 5.355h3.181L8.61 25.012H0Zm7.123-4.058 3.25-5.654h11.135l.899 5.654H7.123ZM38.893 25.344c-1.245 0-2.466-.321-3.665-.964-1.199-.665-2.19-1.619-2.974-2.86-.76-1.264-1.14-2.794-1.14-4.59 0-1.508.264-2.894.794-4.158a10.276 10.276 0 0 1 2.179-3.293 10.02 10.02 0 0 1 3.216-2.195 9.594 9.594 0 0 1 3.872-.798c1.268 0 2.386.21 3.355.632.99.399 1.763 1.086 2.316 2.062.577.953.865 2.25.865 3.891 0 1.552-.185 3.06-.553 4.524-.37 1.463-.923 2.782-1.66 3.958-.738 1.153-1.66 2.073-2.767 2.76-1.106.688-2.385 1.031-3.838 1.031Zm2.94-5.92c.691 0 1.29-.166 1.797-.499.508-.355.9-.843 1.176-1.463.3-.621.45-1.353.45-2.196 0-.842-.254-1.53-.761-2.062-.484-.532-1.164-.798-2.04-.798a3.16 3.16 0 0 0-1.798.532c-.507.333-.91.81-1.21 1.43-.277.621-.415 1.353-.415 2.196 0 .842.242 1.53.726 2.062.507.532 1.198.798 2.074.798Zm1.797 5.588.52-2.462 1.279-6.652 1.002-6.585L48.3.333h7.814l-5.117 24.679H43.63ZM59.85 25.012 56.012 6.818h7.711L66.56 21.62h-4.046l9.094-14.8h7.711L67.942 25.011H59.85ZM87.475 25.344c-2.074 0-3.895-.343-5.463-1.03-1.544-.688-2.755-1.664-3.63-2.928-.877-1.264-1.315-2.75-1.315-4.457 0-1.995.485-3.78 1.453-5.354.968-1.575 2.328-2.816 4.08-3.726 1.775-.909 3.838-1.363 6.19-1.363 2.028 0 3.757.343 5.186 1.03 1.43.688 2.525 1.63 3.285 2.828.761 1.197 1.141 2.583 1.141 4.157a9.53 9.53 0 0 1-.138 1.63c-.07.532-.161 1.042-.277 1.53H83.292l.726-3.625H94.39l-3.25.964c.184-.71.173-1.308-.035-1.796a2.142 2.142 0 0 0-.968-1.164c-.461-.288-1.026-.432-1.694-.432-.945 0-1.695.244-2.248.731-.553.488-.957 1.12-1.21 1.896a8.479 8.479 0 0 0-.346 2.428c0 1.131.311 1.94.934 2.428.645.466 1.579.699 2.8.699.715 0 1.43-.1 2.144-.3a7.025 7.025 0 0 0 1.971-.964l3.25 4.557c-1.29.842-2.639 1.43-4.045 1.762a17.98 17.98 0 0 1-4.219.5ZM115.05 6.486c1.567 0 2.904.321 4.011.964 1.129.621 1.925 1.564 2.386 2.827.484 1.242.53 2.805.138 4.69l-2.075 10.045h-7.814l1.901-9.147c.208-.998.162-1.752-.138-2.262-.3-.532-.864-.798-1.694-.798-.876 0-1.614.288-2.213.865-.6.554-1.026 1.419-1.28 2.594l-1.832 8.748h-7.815l3.769-18.194h7.365l-1.072 5.09-.899-1.398c.899-1.397 2.006-2.417 3.32-3.06 1.337-.643 2.651-.964 3.942-.964ZM131.964 25.344c-1.614 0-2.986-.288-4.115-.864-1.13-.577-1.925-1.42-2.386-2.528-.461-1.131-.53-2.484-.207-4.058l3.146-15.167h7.815l-3.147 15.134c-.115.62-.046 1.075.208 1.363.253.289.645.433 1.175.433.323 0 .611-.034.865-.1.276-.089.565-.2.864-.333l.899 5.056a8.102 8.102 0 0 1-2.42.798c-.876.178-1.775.266-2.697.266Zm-8.368-12.04 1.141-5.488h14.281l-1.141 5.488h-14.281ZM146.935 25.344c-1.522 0-2.847-.31-3.977-.931-1.106-.643-1.901-1.585-2.386-2.827-.461-1.264-.495-2.838-.103-4.723l2.074-10.045h7.815l-1.902 9.147c-.207.998-.161 1.763.139 2.295.299.51.841.765 1.625.765.876 0 1.602-.277 2.178-.832.6-.576 1.015-1.452 1.245-2.627l1.833-8.748h7.815l-3.77 18.194h-7.365l1.072-5.09.899 1.398c-.899 1.397-2.005 2.417-3.319 3.06-1.291.643-2.582.964-3.873.964ZM162.953 25.012l3.769-18.194h7.365l-1.072 5.156-.726-1.464c.784-1.441 1.868-2.472 3.251-3.093 1.406-.62 3.008-.931 4.806-.931l-1.383 6.652a16.03 16.03 0 0 0-.899-.1 9.136 9.136 0 0 0-.795-.033c-1.291 0-2.34.277-3.147.831-.784.555-1.314 1.475-1.591 2.76l-1.763 8.416h-7.815ZM189.827 25.344c-2.075 0-3.896-.343-5.464-1.03-1.544-.688-2.755-1.664-3.631-2.928-.876-1.264-1.314-2.75-1.314-4.457 0-1.995.485-3.78 1.453-5.354.968-1.575 2.328-2.816 4.08-3.726 1.775-.909 3.838-1.363 6.19-1.363 2.028 0 3.757.343 5.186 1.03 1.43.688 2.525 1.63 3.285 2.828.761 1.197 1.141 2.583 1.141 4.157a9.55 9.55 0 0 1-.138 1.63 14.89 14.89 0 0 1-.277 1.53h-14.695l.726-3.625h10.373l-3.25.964c.184-.71.173-1.308-.035-1.796a2.14 2.14 0 0 0-.968-1.164c-.461-.288-1.026-.432-1.694-.432-.945 0-1.695.244-2.248.731-.553.488-.957 1.12-1.21 1.896a8.465 8.465 0 0 0-.346 2.428c0 1.131.311 1.94.934 2.428.645.466 1.579.699 2.801.699.714 0 1.429-.1 2.143-.3a7.016 7.016 0 0 0 1.971-.964l3.251 4.557c-1.291.842-2.64 1.43-4.046 1.762a17.976 17.976 0 0 1-4.218.5ZM208.86 25.344c-1.683 0-3.285-.155-4.807-.465-1.498-.333-2.662-.732-3.492-1.198l2.697-5.122c.945.554 2.006.976 3.181 1.264 1.199.266 2.329.4 3.389.4.876 0 1.475-.078 1.798-.234.346-.177.519-.388.519-.632 0-.266-.231-.454-.692-.565-.461-.133-1.06-.244-1.798-.333a25.055 25.055 0 0 1-2.282-.399 11.774 11.774 0 0 1-2.317-.765 4.846 4.846 0 0 1-1.763-1.463c-.461-.621-.692-1.441-.692-2.461 0-1.575.473-2.86 1.418-3.859.968-1.02 2.259-1.773 3.873-2.261 1.613-.51 3.4-.765 5.359-.765 1.383 0 2.709.122 3.977.366 1.291.221 2.432.554 3.423.997l-2.697 5.123c-.991-.555-1.982-.92-2.974-1.098a14.857 14.857 0 0 0-2.662-.266c-.899 0-1.522.1-1.868.3-.345.177-.518.376-.518.598 0 .266.23.466.691.598.461.134 1.049.256 1.764.366.715.09 1.475.222 2.282.4.83.155 1.602.41 2.317.764.714.333 1.302.81 1.763 1.43.461.622.692 1.442.692 2.462 0 1.508-.484 2.772-1.452 3.792-.946 1.02-2.225 1.785-3.839 2.294-1.59.488-3.354.732-5.29.732ZM231.627 25.344c-2.074 0-3.884-.343-5.428-1.03-1.545-.71-2.744-1.697-3.597-2.961-.829-1.264-1.244-2.738-1.244-4.424 0-1.995.507-3.78 1.521-5.354 1.014-1.575 2.409-2.816 4.184-3.726 1.775-.909 3.804-1.363 6.086-1.363 2.098 0 3.907.355 5.429 1.064 1.544.687 2.731 1.663 3.561 2.927.853 1.242 1.28 2.716 1.28 4.424 0 1.995-.507 3.78-1.522 5.355-1.014 1.574-2.409 2.816-4.184 3.725-1.752.909-3.78 1.363-6.086 1.363Zm.45-5.854c.691 0 1.291-.166 1.798-.498.507-.355.899-.843 1.176-1.464.299-.643.449-1.397.449-2.262 0-.776-.242-1.452-.726-2.028-.484-.6-1.176-.899-2.075-.899a3.16 3.16 0 0 0-1.798.533c-.507.332-.91.82-1.21 1.463-.277.621-.415 1.364-.415 2.229 0 .864.242 1.574.726 2.128.507.532 1.199.799 2.075.799ZM244.76 25.012l3.665-17.628c.461-2.173 1.487-3.947 3.077-5.322C253.116.687 255.295 0 258.038 0c.945 0 1.821.078 2.628.233.83.133 1.556.355 2.178.665L259.87 6.12a3.761 3.761 0 0 0-1.763-.433c-.622 0-1.107.167-1.452.5-.323.332-.565.864-.726 1.596l-.208.998-.38 2.96-2.767 13.27h-7.814Zm-.173-11.708 1.141-5.488h14.281l-1.141 5.488h-14.281ZM267.094 25.344c-1.245 0-2.467-.321-3.665-.964-1.199-.665-2.19-1.619-2.974-2.86-.761-1.264-1.141-2.794-1.141-4.59 0-1.508.265-2.894.795-4.158a10.272 10.272 0 0 1 2.178-3.293 10.036 10.036 0 0 1 3.216-2.195 9.596 9.596 0 0 1 3.873-.798c1.475 0 2.755.288 3.838.865 1.084.576 1.856 1.552 2.317 2.926.484 1.353.53 3.227.138 5.621-.322 1.952-.876 3.637-1.659 5.056-.761 1.419-1.718 2.505-2.87 3.26-1.153.753-2.502 1.13-4.046 1.13Zm2.939-5.92c.692 0 1.291-.166 1.798-.499.507-.355.899-.843 1.176-1.463.299-.621.449-1.353.449-2.196 0-.842-.253-1.53-.76-2.062-.485-.532-1.165-.798-2.041-.798-.668 0-1.267.177-1.798.532-.507.333-.91.81-1.21 1.43-.277.621-.415 1.353-.415 2.196 0 .842.242 1.53.726 2.062.507.532 1.199.798 2.075.798Zm1.833 5.588.518-2.462 1.28-6.652 1.003-6.585.518-2.495H283l-3.769 18.194h-7.365ZM16.39 66.08c-2.49 0-4.668-.433-6.535-1.297-1.867-.887-3.32-2.107-4.357-3.66-1.014-1.573-1.521-3.392-1.521-5.454 0-2.04.368-3.913 1.106-5.62a13.19 13.19 0 0 1 3.181-4.424c1.36-1.242 2.974-2.196 4.841-2.86 1.867-.688 3.92-1.032 6.155-1.032 2.328 0 4.392.4 6.19 1.198 1.798.798 3.135 1.95 4.01 3.459l-5.878 4.423c-.507-.864-1.164-1.53-1.97-1.995-.807-.488-1.764-.732-2.87-.732-.969 0-1.856.177-2.663.532a5.7 5.7 0 0 0-2.04 1.463 6.65 6.65 0 0 0-1.349 2.229c-.322.865-.484 1.818-.484 2.86 0 .91.208 1.708.623 2.395.415.688.99 1.22 1.729 1.597.76.377 1.636.565 2.628.565.945 0 1.867-.21 2.766-.632.922-.421 1.798-1.109 2.628-2.062l4.806 4.423c-1.475 1.73-3.123 2.938-4.944 3.626-1.799.665-3.816.998-6.052.998ZM38.677 65.88c-2.075 0-3.885-.344-5.43-1.03-1.544-.71-2.742-1.697-3.595-2.961-.83-1.264-1.245-2.739-1.245-4.424 0-1.995.507-3.78 1.521-5.355 1.014-1.574 2.41-2.816 4.184-3.725 1.775-.909 3.804-1.363 6.086-1.363 2.098 0 3.907.354 5.429 1.064 1.544.687 2.732 1.663 3.561 2.927.853 1.242 1.28 2.716 1.28 4.423 0 1.996-.507 3.781-1.522 5.355-1.014 1.575-2.408 2.816-4.184 3.725-1.752.91-3.78 1.364-6.085 1.364Zm.45-5.854c.69 0 1.29-.166 1.797-.499.507-.354.9-.842 1.176-1.463.3-.643.45-1.397.45-2.262 0-.776-.243-1.452-.727-2.029-.484-.598-1.175-.898-2.075-.898a3.16 3.16 0 0 0-1.797.533c-.508.332-.911.82-1.21 1.463-.277.62-.416 1.364-.416 2.228 0 .865.242 1.575.726 2.13.508.531 1.2.797 2.075.797ZM59.07 65.88c-1.521 0-2.847-.31-3.976-.931-1.107-.643-1.902-1.586-2.386-2.827-.461-1.264-.496-2.839-.104-4.723l2.075-10.045h7.815l-1.902 9.147c-.208.998-.161 1.763.138 2.295.3.51.842.765 1.625.765.876 0 1.603-.278 2.179-.832.6-.576 1.014-1.452 1.245-2.627l1.832-8.748h7.815l-3.77 18.194h-7.364l1.072-5.09.899 1.398c-.9 1.397-2.006 2.416-3.32 3.06-1.29.643-2.582.964-3.873.964ZM88.713 65.88c-1.453 0-2.732-.288-3.839-.865-1.083-.576-1.867-1.552-2.351-2.926-.461-1.375-.496-3.249-.104-5.621.346-1.974.9-3.66 1.66-5.056.76-1.42 1.717-2.506 2.87-3.26 1.176-.754 2.524-1.13 4.046-1.13 1.268 0 2.49.332 3.665.997 1.199.643 2.178 1.586 2.94 2.828.783 1.241 1.175 2.771 1.175 4.59 0 1.485-.265 2.87-.795 4.157a10.378 10.378 0 0 1-2.214 3.326 10.228 10.228 0 0 1-3.215 2.195 9.7 9.7 0 0 1-3.838.765ZM73.74 72l5.118-24.646h7.365l-.519 2.461-1.28 6.653-1.002 6.585L81.555 72H73.74Zm13.693-12.04c.692 0 1.291-.166 1.798-.5.507-.354.9-.842 1.176-1.462.3-.621.45-1.353.45-2.196 0-.842-.254-1.53-.761-2.062-.484-.532-1.165-.798-2.04-.798a3.16 3.16 0 0 0-1.799.532c-.507.333-.91.81-1.21 1.43-.276.621-.415 1.353-.415 2.195 0 .843.242 1.53.726 2.063.508.532 1.2.798 2.075.798ZM110.4 65.88c-2.075 0-3.884-.344-5.429-1.03-1.544-.71-2.743-1.697-3.596-2.961-.83-1.264-1.245-2.739-1.245-4.424 0-1.995.507-3.78 1.522-5.355 1.014-1.574 2.409-2.816 4.184-3.725 1.775-.909 3.803-1.363 6.085-1.363 2.098 0 3.908.354 5.429 1.064 1.545.687 2.732 1.663 3.562 2.927.853 1.242 1.279 2.716 1.279 4.423 0 1.996-.507 3.781-1.521 5.355-1.014 1.575-2.409 2.816-4.184 3.725-1.752.91-3.781 1.364-6.086 1.364Zm.45-5.854c.691 0 1.29-.166 1.798-.499.507-.354.899-.842 1.175-1.463.3-.643.45-1.397.45-2.262 0-.776-.242-1.452-.726-2.029-.484-.598-1.176-.898-2.075-.898-.669 0-1.268.178-1.798.533-.507.332-.911.82-1.21 1.463-.277.62-.415 1.364-.415 2.228 0 .865.242 1.575.726 2.13.507.531 1.199.797 2.075.797ZM139.093 47.022c1.567 0 2.904.321 4.011.964 1.129.621 1.925 1.563 2.386 2.827.484 1.242.53 2.805.138 4.69l-2.075 10.044h-7.815l1.902-9.146c.208-.998.162-1.752-.138-2.262-.3-.532-.864-.798-1.694-.798-.876 0-1.614.288-2.213.865-.6.554-1.026 1.419-1.28 2.594l-1.832 8.748h-7.815l3.769-18.194h7.365l-1.072 5.089-.899-1.397c.899-1.397 2.006-2.417 3.32-3.06 1.337-.643 2.651-.964 3.942-.964ZM146.947 65.547l3.769-18.193h7.78l-3.769 18.194h-7.78Zm8.506-19.656c-1.36 0-2.443-.344-3.25-1.031-.784-.688-1.176-1.53-1.176-2.528 0-1.175.45-2.15 1.349-2.927.922-.776 2.132-1.164 3.631-1.164 1.36 0 2.432.321 3.215.964.807.644 1.211 1.464 1.211 2.462 0 1.241-.461 2.261-1.383 3.06-.9.776-2.098 1.164-3.597 1.164ZM166.076 65.88c-1.683 0-3.285-.155-4.807-.465-1.498-.333-2.662-.732-3.492-1.198l2.697-5.122c.945.554 2.006.976 3.181 1.264 1.199.266 2.329.4 3.389.4.876 0 1.475-.079 1.798-.234.346-.177.519-.388.519-.632 0-.266-.231-.454-.692-.565-.461-.133-1.06-.244-1.798-.333a24.997 24.997 0 0 1-2.282-.399 11.767 11.767 0 0 1-2.317-.765 4.837 4.837 0 0 1-1.763-1.463c-.461-.621-.692-1.442-.692-2.462 0-1.574.473-2.86 1.418-3.858.968-1.02 2.259-1.774 3.873-2.261 1.613-.51 3.4-.765 5.359-.765 1.383 0 2.709.122 3.977.366 1.291.221 2.432.554 3.423.997l-2.697 5.122c-.991-.554-1.983-.92-2.974-1.097a14.874 14.874 0 0 0-2.662-.266c-.899 0-1.522.1-1.868.299-.345.177-.518.377-.518.599 0 .266.23.465.691.598.461.133 1.049.255 1.764.366.714.089 1.475.222 2.282.4.83.155 1.602.41 2.317.764.714.333 1.302.81 1.763 1.43.461.621.692 1.442.692 2.462 0 1.508-.484 2.772-1.453 3.791-.945 1.02-2.224 1.785-3.838 2.295-1.59.488-3.354.732-5.29.732ZM186.803 65.88c-1.614 0-2.985-.288-4.115-.865-1.129-.576-1.925-1.419-2.386-2.527-.461-1.131-.53-2.484-.207-4.058l3.147-15.167h7.814l-3.146 15.134c-.116.62-.046 1.075.207 1.363.254.288.646.433 1.176.433.322 0 .611-.034.864-.1a8.6 8.6 0 0 0 .865-.333l.899 5.056a8.12 8.12 0 0 1-2.421.798c-.876.177-1.775.266-2.697.266Zm-8.368-12.04 1.141-5.488h14.281l-1.141 5.488h-14.281ZM201.786 65.88c-1.244 0-2.466-.321-3.665-.964-1.199-.666-2.19-1.62-2.974-2.86-.76-1.265-1.141-2.795-1.141-4.59 0-1.508.265-2.894.796-4.158a10.273 10.273 0 0 1 2.178-3.293 10.016 10.016 0 0 1 3.216-2.195 9.597 9.597 0 0 1 3.873-.798c1.475 0 2.754.288 3.838.864 1.083.577 1.856 1.552 2.317 2.927.484 1.353.53 3.226.138 5.621-.323 1.952-.876 3.637-1.66 5.056-.761 1.419-1.717 2.505-2.87 3.26-1.153.753-2.501 1.13-4.046 1.13Zm2.94-5.92c.691 0 1.291-.166 1.798-.5.507-.354.899-.842 1.175-1.462.3-.621.45-1.353.45-2.196 0-.842-.254-1.53-.761-2.062-.484-.532-1.164-.798-2.04-.798-.669 0-1.268.177-1.798.532-.507.333-.911.81-1.21 1.43-.277.621-.415 1.353-.415 2.195 0 .843.242 1.53.726 2.063.507.532 1.199.798 2.075.798Zm1.832 5.587.519-2.46 1.279-6.653 1.003-6.585.519-2.495h7.815l-3.77 18.194h-7.365Z" fill="#fff"/>
    </symbol>
    <symbol fill="none" viewBox="0 0 24 24" id="icon-search" xmlns="http://www.w3.org/2000/svg">
        <path d="m21 21-6-6M3 10a7 7 0 1 0 14 0 7 7 0 0 0-14 0Z" stroke-width="2" stroke-linecap="round" stroke-linejoin="round"/>
    </symbol>
    <symbol viewBox="0 0 11 11" id="icon-close" xmlns="http://www.w3.org/2000/svg">
        <path d="M5.5 4.278 9.778 0 11 1.222 6.722 5.5 11 9.778 9.778 11 5.5 6.722 1.222 11 0 9.778 4.278 5.5 0 1.222 1.222 0 5.5 4.278Z" />
    </symbol>
    <symbol viewBox="0 0 8 12" id="icon-arrow" xmlns="http://www.w3.org/2000/svg">
        <path d="M7.573 5.626 1.208.143A.605.605 0 0 0 .814 0 .605.605 0 0 0 .42.143L.414.149a.478.478 0 0 0-.121.157.436.436 0 0 0 0 .375C.32.74.362.793.413.838L6.408 6 .414 11.162a.478.478 0 0 0-.121.157.436.436 0 0 0 0 .375c.028.06.069.113.12.157l.007.006A.605.605 0 0 0 .814 12a.605.605 0 0 0 .394-.143l6.365-5.483a.519.519 0 0 0 .13-.17.474.474 0 0 0 0-.407.519.519 0 0 0-.13-.17Z" />
    </symbol>
    <symbol viewBox="0 0 16 16" id="icon-clock" xmlns="http://www.w3.org/2000/svg">
        <path d="M8 1.5A6.5 6.5 0 1 0 14.5 8 6.507 6.507 0 0 0 8 1.5Zm0 12A5.5 5.5 0 1 1 13.5 8 5.506 5.506 0 0 1 8 13.5ZM12 8a.5.5 0 0 1-.5.5H8a.5.5 0 0 1-.5-.5V4.5a.5.5 0 1 1 1 0v3h3a.5.5 0 0 1 .5.5Z" />
    </symbol>
    <symbol viewBox="0 0 38 38" id="icon-plus" xmlns="http://www.w3.org/2000/svg">
        <path d="M35 21.662H21.667v13.333a2.667 2.667 0 1 1-5.334 0V21.662H3a2.667 2.667 0 0 1 0-5.334h13.333V2.995a2.667 2.667 0 0 1 5.334 0v13.333H35a2.667 2.667 0 0 1 0 5.334Z"/>
    </symbol>
    <symbol viewBox="0 0 22 14" id="icon-arr" xmlns="http://www.w3.org/2000/svg">
        <path d="m20 7 .566.566.565-.566-.565-.567L20 7Zm-.567-.567-6.4 6.4 1.133 1.133 6.4-6.4-1.133-1.133Zm1.133 0-6.4-6.4-1.133 1.133 6.4 6.4 1.133-1.133ZM20 6.2H0v1.6h20V6.2Z"/>
    </symbol>
    <symbol viewBox="0 0 32 32" id="icon-star" xmlns="http://www.w3.org/2000/svg">
        <path d="m16 0 3.592 11.056h11.625l-9.405 6.833 3.593 11.055L16 22.112l-9.405 6.832 3.593-11.055-9.405-6.833h11.625L16 0Z" />
    </symbol>
    <symbol  viewBox="0 0 32 32" id="icon-fire" xmlns="http://www.w3.org/2000/svg">
        <g clip-path="url(#aa)">
            <path opacity=".962" fill-rule="evenodd" clip-rule="evenodd" d="M13.969-.031h.75c4.95 2.814 7.252 7.085 6.906 12.812a10.124 10.124 0 0 0 1.625-2.312c.4-.582.911-.697 1.531-.344 3.112 3.127 4.352 6.887 3.719 11.281-1.047 5.089-4.036 8.453-8.969 10.094-.768.211-1.54.367-2.312.469h-2.5c-5.054-.69-8.585-3.377-10.594-8.063-1.686-4.905-.852-9.321 2.5-13.25A28.064 28.064 0 0 1 9.844 8c2.14-2 3.338-4.469 3.594-7.406.123-.259.3-.467.53-.625Zm1.125 2.562c2.646 1.874 4.178 4.436 4.594 7.688a14.495 14.495 0 0 1-.125 3.062 28.231 28.231 0 0 1-.594 2.188c.22.86.74 1.12 1.562.781a12.38 12.38 0 0 0 3.782-3.719c2.265 2.91 2.932 6.16 2 9.75-1.306 3.973-3.983 6.483-8.032 7.532-4.424.768-8.06-.576-10.906-4.032-2.34-3.323-2.777-6.886-1.313-10.687a10.94 10.94 0 0 1 2.97-4.031 14.363 14.363 0 0 0 4.78-4.97 12.785 12.785 0 0 0 1.282-3.562Z" fill="#686868"/>
        </g>
        <defs>
            <clipPath id="aa">
                <path  d="M0 0h32v32H0z"/>
            </clipPath>
        </defs>
    </symbol>
    <symbol viewBox="0 0 32 32" id="icon-percent" xmlns="http://www.w3.org/2000/svg">
        <path fill-rule="evenodd" clip-rule="evenodd" d="M15.032 2.446a4.565 4.565 0 0 1 3.936 0c.542.26 1.037.682 1.724 1.267l.11.093c.332.284.437.37.544.442.27.182.574.307.892.37.126.025.261.037.698.071l.142.011c.898.072 1.548.123 2.114.322a4.578 4.578 0 0 1 2.786 2.786c.198.566.249 1.215.322 2.114l.01.142c.035.437.047.574.072.698.063.32.19.623.37.893.071.106.158.21.442.544l.093.109c.586.686 1.008 1.182 1.267 1.722a4.567 4.567 0 0 1 0 3.938c-.258.542-.68 1.036-1.267 1.724l-.093.109a6.676 6.676 0 0 0-.442.545c-.182.27-.307.573-.37.891-.025.126-.036.262-.071.699l-.013.141c-.07.9-.121 1.549-.322 2.114a4.564 4.564 0 0 1-2.784 2.787c-.566.198-1.216.249-2.114.321l-.142.012a6.653 6.653 0 0 0-.698.071 2.456 2.456 0 0 0-.892.37c-.19.138-.372.285-.546.442l-.108.093c-.686.586-1.182 1.008-1.722 1.267a4.566 4.566 0 0 1-3.938 0c-.542-.258-1.036-.68-1.724-1.267l-.109-.093a6.676 6.676 0 0 0-.543-.442 2.442 2.442 0 0 0-.893-.37 6.65 6.65 0 0 0-.699-.071l-.141-.013c-.9-.07-1.549-.122-2.114-.322a4.567 4.567 0 0 1-2.786-2.785c-.2-.565-.251-1.215-.322-2.114l-.012-.141a6.665 6.665 0 0 0-.071-.699 2.459 2.459 0 0 0-.37-.891 6.642 6.642 0 0 0-.442-.547l-.092-.107c-.586-.686-1.009-1.182-1.268-1.722a4.566 4.566 0 0 1 0-3.939c.26-.541.682-1.036 1.268-1.723l.092-.11a6.67 6.67 0 0 0 .442-.543c.182-.27.307-.573.37-.893.025-.126.038-.261.071-.698l.012-.142c.07-.899.123-1.548.322-2.114a4.565 4.565 0 0 1 2.786-2.786c.565-.199 1.215-.25 2.114-.322l.141-.011a6.26 6.26 0 0 0 .699-.071c.319-.063.623-.19.893-.37.105-.071.21-.158.543-.442l.11-.093c.685-.585 1.182-1.008 1.723-1.267Zm3.026 1.901a2.458 2.458 0 0 0-2.12 0c-.258.124-.531.346-1.373 1.062l-.041.035c-.276.235-.476.407-.696.554a4.561 4.561 0 0 1-1.66.686c-.258.052-.522.073-.884.102l-.053.004c-1.102.089-1.45.125-1.722.22-.7.248-1.252.798-1.498 1.5-.098.271-.133.62-.222 1.722l-.004.053a7.73 7.73 0 0 1-.1.885 4.585 4.585 0 0 1-.687 1.659c-.148.22-.32.42-.555.697l-.035.04c-.716.84-.938 1.115-1.062 1.373a2.458 2.458 0 0 0 0 2.12c.124.26.346.533 1.062 1.374l.035.042c.235.276.407.476.554.696a4.56 4.56 0 0 1 .686 1.659c.052.259.073.522.102.885l.004.053c.089 1.102.125 1.45.22 1.722.248.7.798 1.252 1.5 1.498.271.098.62.133 1.722.221l.053.004c.362.028.626.05.885.101.593.118 1.156.35 1.659.686.22.149.42.32.697.556l.04.035c.84.715 1.115.938 1.373 1.061a2.459 2.459 0 0 0 2.12 0c.26-.123.532-.346 1.374-1.06l.042-.036c.276-.235.476-.407.696-.554a4.56 4.56 0 0 1 1.659-.686c.293-.051.588-.085.885-.103l.053-.004c1.102-.088 1.45-.124 1.722-.22a2.454 2.454 0 0 0 1.498-1.499c.098-.272.133-.622.221-1.722l.004-.053c.017-.297.05-.593.101-.887.118-.592.35-1.154.686-1.657.149-.22.32-.42.556-.697l.035-.04c.715-.84.938-1.115 1.061-1.373a2.46 2.46 0 0 0 0-2.121c-.123-.259-.346-.532-1.061-1.373l-.035-.042c-.235-.276-.407-.476-.555-.696a4.566 4.566 0 0 1-.686-1.66 7.73 7.73 0 0 1-.102-.884l-.004-.053c-.088-1.102-.124-1.45-.22-1.722a2.454 2.454 0 0 0-1.5-1.498c-.27-.098-.62-.133-1.721-.222l-.053-.004a7.793 7.793 0 0 1-.887-.1 4.566 4.566 0 0 1-1.657-.687c-.22-.148-.42-.32-.697-.555l-.041-.035c-.84-.716-1.114-.938-1.372-1.062" fill="#686868"/>
        <path fill-rule="evenodd" clip-rule="evenodd" d="M22.648 10.35a1.203 1.203 0 0 1 0 1.702L13.03 21.67a1.202 1.202 0 0 1-1.701-1.7l9.617-9.618a1.203 1.203 0 0 1 1.702 0"/>
        <path d="M23 20.231a1.714 1.714 0 0 1-3.315.673A1.716 1.716 0 1 1 23 20.23Zm-8.57-8.57a1.715 1.715 0 1 1-3.43.108 1.715 1.715 0 0 1 3.43-.108Z" />
    </symbol>
    <symbol viewBox="0 0 32 32" id="icon-update" xmlns="http://www.w3.org/2000/svg">
        <g clip-path="url(#aa)" fill-rule="evenodd" clip-rule="evenodd">
            <path opacity=".968" d="M27.031-.031h.75c.472.192.733.547.782 1.062.041 2.334.041 4.667 0 7a1.155 1.155 0 0 1-.47.906c-2.386.838-4.782 1.65-7.187 2.438-.912.16-1.433-.216-1.562-1.125.04-.478.27-.832.687-1.063 1.72-.559 3.428-1.142 5.125-1.75C21.517 3.804 17.205 2.657 12.22 4 7.4 5.734 4.516 9.12 3.563 14.156a72.43 72.43 0 0 0-.188 2.188c-.299.686-.81.925-1.531.718-.628-.297-.878-.797-.75-1.5C1.397 10.037 3.897 5.85 8.594 3 12.925.717 17.363.488 21.906 2.312c1.583.723 3.01 1.671 4.282 2.844L26.25.844c.122-.424.383-.716.781-.875ZM4.906 31.969h-.75c-.472-.193-.732-.547-.781-1.063a196 196 0 0 1 0-7c.016-.375.172-.677.469-.906 2.386-.837 4.782-1.65 7.187-2.438.912-.159 1.433.216 1.563 1.125a1.27 1.27 0 0 1-.688 1.063c-1.72.56-3.428 1.143-5.125 1.75 3.64 3.634 7.952 4.78 12.938 3.438 4.817-1.735 7.703-5.12 8.656-10.157.074-.728.136-1.457.188-2.187.298-.686.809-.926 1.53-.719.629.298.879.798.75 1.5-.303 5.526-2.803 9.713-7.5 12.563-4.33 2.282-8.768 2.512-13.312.687a16.198 16.198 0 0 1-4.281-2.844c-.02 1.438-.042 2.875-.063 4.313a1.271 1.271 0 0 1-.78.875Z"/>
        </g>
        <defs>
            <clipPath id="aa">
                <path  d="M0 0h32v32H0z"/>
            </clipPath>
        </defs>
    </symbol>
    <symbol viewBox="0 0 24 24" id="icon-close2" xmlns="http://www.w3.org/2000/svg">
        <path d="M19.546 17.954a1.127 1.127 0 0 1-1.594 1.594L12 13.594l-5.954 5.952a1.127 1.127 0 0 1-1.594-1.594L10.406 12 4.454 6.046a1.127 1.127 0 0 1 1.594-1.594L12 10.406l5.954-5.955a1.127 1.127 0 1 1 1.594 1.594L13.594 12l5.952 5.954Z"/>
    </symbol>
    <symbol viewBox="0 0 24 24" id="icon-ok" xmlns="http://www.w3.org/2000/svg">
        <g clip-path="url(#aa)">
            <path d="M13.251.099c1.145.13 2.25.442 3.015 1.326.758.871.984 2.067.984 3.45 0 .7-.13 1.678-.235 2.455l-.023.17h2.133c.904 0 1.761.127 2.502.5a3.628 3.628 0 0 1 1.706 1.8c.679 1.496.657 3.67.282 6.473l-.06.46c-.158 1.184-.293 2.209-.47 3.049-.197.945-.473 1.814-1.002 2.508C20.955 23.77 19.059 24 16.5 24c-2.772 0-4.851-.5-6.582-.98-.247-.067-.484-.134-.712-.199-.987-.279-1.8-.51-2.588-.623A2.625 2.625 0 0 1 4.125 24h-1.5A2.625 2.625 0 0 1 0 21.375v-11.25A2.626 2.626 0 0 1 2.625 7.5h1.5a2.625 2.625 0 0 1 2.271 1.308 6.505 6.505 0 0 0 1.377-.762C8.78 7.311 9.75 6.118 9.75 4.125v-.75c0-1.803 1.491-3.506 3.501-3.276ZM6.75 19.95c1.058.132 2.085.426 3.108.717l.662.188c1.644.457 3.5.896 5.98.896 2.691 0 3.42-.334 3.792-.823.22-.29.414-.758.591-1.605.158-.753.282-1.686.443-2.895l.06-.45c.375-2.823.283-4.4-.102-5.245a1.38 1.38 0 0 0-.663-.72c-.313-.157-.78-.262-1.496-.262H16.5c-1.029 0-1.943-.865-1.809-2.004.034-.288.075-.585.114-.879.098-.732.195-1.455.195-1.992 0-1.213-.216-1.725-.432-1.974-.205-.237-.603-.456-1.572-.567-.46-.054-.996.354-.996 1.04v.75c0 2.883-1.467 4.692-2.9 5.737a8.748 8.748 0 0 1-2.35 1.216v8.872ZM4.125 9.75h-1.5a.375.375 0 0 0-.375.375v11.25c0 .207.168.375.375.375h1.5a.375.375 0 0 0 .375-.375v-11.25a.375.375 0 0 0-.375-.375Z" />
        </g>
        <defs>
            <clipPath id="aa">
                <path fill="#fff" d="M0 0h24v24H0z"/>
            </clipPath>
        </defs>
    </symbol>

</svg>
